<svg width="200" height="52" viewBox="0 0 200 52" fill="none" xmlns="http://www.w3.org/2000/svg">
<path fill-rule="evenodd" clip-rule="evenodd" d="M57 1H52V16.3622C49.666 14.2693 46.6035 13 43.25 13C35.9322 13 30 19.0442 30 26.5C30 33.9558 35.9322 40 43.25 40C46.6035 40 49.666 38.7307 52 36.6378V39H57V1ZM52 26.5C52 21.8056 48.1944 18 43.5 18C38.8056 18 35 21.8056 35 26.5C35 31.1944 38.8056 35 43.5 35C48.1944 35 52 31.1944 52 26.5ZM22 36.6378C19.666 38.7307 16.6035 40 13.25 40C5.93223 40 0 33.9558 0 26.5C0 19.0442 5.93223 13 13.25 13C16.6035 13 19.666 14.2693 22 16.3622V14H27V39H22V36.6378ZM22 26.5C22 31.1944 18.1944 35 13.5 35C8.80558 35 5 31.1944 5 26.5C5 21.8056 8.80558 18 13.5 18C18.1944 18 22 21.8056 22 26.5ZM98.25 13C101.604 13 104.666 14.2693 107 16.3622V14H112V39H107V36.6378C104.666 38.7307 101.604 40 98.25 40C90.9322 40 85 33.9558 85 26.5C85 19.0442 90.9322 13 98.25 13ZM98.5 35C103.194 35 107 31.1944 107 26.5C107 21.8056 103.194 18 98.5 18C93.8056 18 90 21.8056 90 26.5C90 31.1944 93.8056 35 98.5 35ZM167 16.3622C164.666 14.2693 161.604 13 158.25 13C150.932 13 145 19.0442 145 26.5C145 33.9558 150.932 40 158.25 40C161.604 40 164.666 38.7307 167 36.6378V39H172V14H167V16.3622ZM167 26.5C167 31.1944 163.194 35 158.5 35C153.806 35 150 31.1944 150 26.5C150 21.8056 153.806 18 158.5 18C163.194 18 167 21.8056 167 26.5ZM143 26.5C143 33.9558 137.068 40 129.75 40C126.396 40 123.334 38.7307 121 36.6378V52H116V14H121V16.3622C123.334 14.2693 126.396 13 129.75 13C137.068 13 143 19.0442 143 26.5ZM129.5 35C124.806 35 121 31.1944 121 26.5C121 21.8056 124.806 18 129.5 18C134.194 18 138 21.8056 138 26.5C138 31.1944 134.194 35 129.5 35ZM71.9837 32.3902L79.4138 14H84.8064L74.7058 39H69.2615L59.1609 14H64.5536L71.9837 32.3902ZM194.253 14L186.823 32.3902L179.393 14H174L184.126 39.0638L178.9 52H184.293L199.646 14H194.253Z" fill="white"/>
</svg>
