
<?xml version="1.0" encoding="UTF-8"?>
<svg width="112" height="48" viewBox="0 0 112 48" fill="none" xmlns="http://www.w3.org/2000/svg">
<path d="M111.019 30.5183H107.03L102.775 35.064V26.1511H99.3655V42.0156H102.775V38.8738L104.334 37.2698L107.298 42.0156H111.264L106.696 34.9746L111.019 30.5181V30.5183ZM77.2785 22.364C78.8383 22.364 79.9078 21.6955 80.5761 20.6037V22.0966H83.9631V10.5989H80.4647V11.936C79.7737 10.9331 78.749 10.3317 77.2785 10.3317C74.0695 10.3317 72.265 12.6937 72.265 16.3477C72.265 20.0018 74.0696 22.364 77.2785 22.364ZM78.1474 13.1168C79.7071 13.1168 80.5313 14.164 80.5313 16.3477C80.5313 18.5315 79.7071 19.5787 78.1474 19.5787C76.6096 19.5787 75.7854 18.6207 75.7854 16.4368C75.7854 14.2529 76.6096 13.1169 78.1474 13.1169V13.1168ZM102.775 18.9547L104.334 17.3505L107.298 22.0966H111.264L106.696 15.0553L111.019 10.5988H107.03L102.775 15.1445V6.23174H99.3655V22.0965H102.775V18.9546V18.9547ZM89.711 15.6793C89.711 13.986 90.8251 13.2953 91.8948 13.2953C93.1872 13.2953 93.7442 13.986 93.7442 15.256V22.0967H97.22V14.5654C97.22 11.7132 95.5044 10.3318 93.2315 10.3318C91.5605 10.3318 90.3795 11.1563 89.6218 12.2258V10.599H86.2349V22.0967H89.711V15.6793ZM80.5685 42.0156H84.0445V30.5183H80.5685V42.0156ZM79.9438 26.782L82.3067 29.1449L84.669 26.7824L82.3061 24.4196L79.9438 26.782ZM68.1367 13.6517C69.4513 13.0278 70.2533 11.8692 70.2533 10.2872C70.2533 8.21491 68.8493 6.23184 64.9281 6.23184H57.3966V22.0966H65.1509C69.0948 22.0966 70.8994 20.247 70.8994 17.4842C70.8994 15.9023 69.9412 14.3199 68.1366 13.6517H68.1367ZM61.1621 9.2399H64.6827C65.8637 9.2399 66.5098 9.90835 66.5098 10.8887C66.5098 11.936 65.8637 12.6266 64.6827 12.6266H61.1621V9.2399ZM64.9281 19.0883H61.1621V15.4788H64.9281C66.2427 15.4788 67.0225 16.0582 67.0225 17.2836C67.0225 18.4422 66.2648 19.0884 64.9281 19.0884V19.0883ZM74.4509 32.6574V30.5182H71.064V42.0156H74.5402V36.6678C74.5402 34.5068 75.6541 33.5485 77.5928 33.5485H78.484V30.3846C78.239 30.3624 77.9935 30.3402 77.7263 30.3402C76.0104 30.3402 74.9409 31.2313 74.4509 32.6574ZM91.8725 39.4308C90.4237 39.4308 89.4881 38.473 89.4881 36.2671C89.4881 34.0612 90.4016 33.0808 91.8725 33.0808C92.9864 33.0808 93.8334 33.6152 94.0334 34.8409H97.4873C97.1752 32.0111 95.0365 30.2508 91.8724 30.2508C88.2627 30.2508 85.9676 32.6126 85.9676 36.2671C85.9676 39.9215 88.2849 42.2829 91.8724 42.2829C95.0586 42.2829 97.3089 40.4559 97.5543 37.4924H94.1004C93.9447 38.8515 93.0308 39.4308 91.8725 39.4308ZM57.3966 42.0156H61.1621V35.5761H68.4486V32.3898H61.1621V29.5153H69.0499V26.151H57.3966V42.0156ZM24 0C10.7453 0 0 10.7451 0 24C0 37.2549 10.7453 48 24 48C37.2547 48 47.9998 37.2547 47.9998 24C47.9998 10.7453 37.2547 0 24 0ZM33.9045 31.9943C33.9045 31.9943 32.198 32.0655 31.6035 30.7628C33.4651 27.0558 27.5195 26.6516 25.7715 31.9642L30.2537 36.5771L23.9999 42.795L17.7461 36.5771L22.2283 31.9642C20.4803 26.6516 14.5347 27.0559 16.3963 30.7628C15.8018 32.0656 14.0953 31.9943 14.0953 31.9943C10.6474 31.9943 7.84262 29.1948 7.84262 25.7416C7.84262 22.2884 10.6421 19.489 14.0953 19.489C19.7052 19.489 22.0321 25.2615 22.9383 30.0136H23.3919C22.0902 21.1303 18.2787 17.0652 18.2787 13.9013C18.2787 10.0866 23.9999 6.52003 23.9999 6.52003C23.9999 6.52003 29.7211 10.0866 29.7211 13.9013C29.7211 17.0652 25.9097 21.1303 24.6079 30.0136H25.0615C25.9677 25.2615 28.2947 19.489 33.9045 19.489C37.3577 19.489 40.1572 22.2884 40.1572 25.7416C40.1572 29.1948 37.3524 31.9943 33.9045 31.9943Z" fill="#152646"/>
</svg>

