
<svg width="211" height="27" viewBox="0 0 211 27" fill="none" xmlns="http://www.w3.org/2000/svg">
<path d="M23.9755 6.47075L21.4594 8.3067C20.0686 5.17009 16.9887 3.39988 13.4452 3.39988C8.41305 3.39988 3.97497 6.90274 3.97497 13.345C3.97497 19.7873 8.31287 23.2549 13.4126 23.2549C17.0213 23.2549 20.1687 21.487 21.5246 18.2823L24.0756 20.0831C21.9556 23.8207 18.0487 26.1239 13.3124 26.1239C6.59122 26.1239 0.794922 21.2851 0.794922 13.3098C0.794922 5.33443 6.7543 0.528564 13.3776 0.528564C17.7482 0.528564 21.9207 2.59694 23.9731 6.4684L23.9755 6.47075Z" fill="white"/>
<path d="M29.0316 1.09692V25.624H25.9844V1.09692H29.0316Z" fill="white"/>
<path d="M48.0986 16.6485C48.0986 17.05 48.0986 17.482 48.0334 17.9492H34.4908C34.8542 21.6187 37.1723 23.4547 40.152 23.4547C42.8008 23.4547 44.5901 22.3536 45.5825 20.0504L47.868 22.0178C46.3117 24.8539 43.1992 26.1217 40.0867 26.1217C34.8216 26.1217 31.3457 22.3512 31.3457 16.9772C31.3457 11.6032 34.9218 7.70117 39.8561 7.70117C44.7904 7.70117 48.1009 11.3379 48.1009 16.6438L48.0986 16.6485ZM44.8207 15.5474C44.8207 12.3779 42.8335 10.4081 39.7885 10.4081C37.2049 10.4081 35.0196 12.1431 34.556 15.5474H44.8207Z" fill="white"/>
<path d="M55.3518 15.9465C60.7823 14.9792 61.5115 14.7444 61.5115 12.9765C61.5115 10.9739 59.6245 10.2062 57.4718 10.2062C54.8882 10.2062 52.9033 11.6078 52.9033 14.3782L50.1216 13.2771C50.4874 9.97375 53.5649 7.70581 57.4718 7.70581C61.8424 7.70581 64.5262 9.77419 64.5262 13.5447V22.3887L65.055 25.6263H62.4061L61.6443 23.3231C60.2535 25.2577 57.9681 26.1264 55.5172 26.1264C52.1391 26.1264 49.7559 24.1566 49.7559 21.1867C49.7559 18.2167 51.9737 16.5475 55.3518 15.9488V15.9465ZM56.1788 23.687C59.5895 23.687 61.5092 21.4848 61.5092 18.6159V16.747C60.9454 17.28 59.9203 17.4138 56.2115 18.1487C54.357 18.5149 52.9988 19.2498 52.9988 21.02C52.9988 22.5202 54.1567 23.6894 56.1765 23.6894L56.1788 23.687Z" fill="white"/>
<path d="M70.3265 8.27161V11.2415C71.6521 8.67308 74.0028 7.93823 75.7897 7.93823C76.2533 7.93823 76.5841 7.9711 77.0151 8.07205V11.2087C76.4839 11.0748 75.9877 11.0091 75.4589 11.0091C72.5118 11.0091 70.3265 12.7112 70.3265 17.2166V25.6263H67.2793V8.27161H70.3265Z" fill="white"/>
<path d="M100.008 1.09692V17.8153C100.008 22.9217 96.9953 26.1241 92.4244 26.1241C87.8535 26.1241 84.9414 23.0203 84.9414 18.6159V17.7473L87.9886 16.247V17.6486C87.9886 21.02 89.3469 23.2222 92.4267 23.2222C95.5066 23.2222 96.8648 21.0858 96.8648 17.7167V1.09692H100.01H100.008Z" fill="white"/>
<path d="M117.726 25.6238H114.679V23.2549C113.453 25.2575 111.533 26.1239 109.183 26.1239C105.176 26.1239 102.76 23.5883 102.76 19.3834V8.27148H105.807V18.9491C105.807 21.9519 107.165 23.4545 109.847 23.4545C112.894 23.4545 114.681 21.3509 114.681 17.7471V8.27148H117.728V25.6238H117.726Z" fill="white"/>
<path d="M123.524 8.27171V10.7416C124.717 8.73892 126.571 7.73877 129.22 7.73877C133.392 7.73877 135.776 10.4082 135.776 14.9135V25.624H132.728V15.3807C132.728 12.1432 131.305 10.542 128.523 10.542C125.411 10.542 123.524 12.6104 123.524 16.2799V25.624H120.477V8.27171H123.524Z" fill="white"/>
<path d="M154.77 12.3756L152.088 14.0449C151.459 11.7746 149.339 10.542 147.056 10.542C143.48 10.542 141.064 13.0776 141.064 16.9162C141.064 20.7548 143.349 23.2904 147.056 23.2904C149.474 23.2904 151.592 21.7901 152.188 19.8204L154.772 21.4896C153.614 24.159 150.567 26.1288 147.056 26.1288C141.693 26.1288 137.949 22.4592 137.949 16.9185C137.949 11.3778 141.791 7.70825 147.056 7.70825C150.632 7.70825 153.679 9.67802 154.772 12.3803L154.77 12.3756Z" fill="white"/>
<path d="M161.876 1.83179V8.2717H166.81V11.0092H161.876V20.52C161.876 22.8889 162.836 23.2575 164.69 23.2575C165.154 23.2575 165.981 23.1236 166.477 23.0227V25.725C165.948 25.9245 164.723 26.0583 164.224 26.0583C160.749 26.0583 158.827 24.6567 158.827 20.9191V11.0092H155.779V8.2717H158.827V4.13494L161.874 1.83179H161.876Z" fill="white"/>
<path d="M172.692 8.27158V25.6239H169.645V8.27158H172.692ZM169.195 2.86468C169.195 1.74715 170.095 0.843262 171.201 0.843262C172.308 0.843262 173.207 1.7495 173.207 2.86468C173.207 3.97987 172.308 4.88611 171.201 4.88611C170.095 4.88611 169.195 3.97987 169.195 2.86468Z" fill="white"/>
<path d="M193.302 16.9136C193.302 22.3534 189.262 26.1239 184.065 26.1239C178.867 26.1239 174.893 22.3534 174.893 16.9136C174.893 11.4739 178.9 7.70337 184.065 7.70337C189.23 7.70337 193.302 11.4739 193.302 16.9136ZM184.065 23.2878C187.608 23.2878 190.157 20.7851 190.157 16.9136C190.157 13.0422 187.608 10.5395 184.065 10.5395C180.521 10.5395 178.005 13.075 178.005 16.9136C178.005 20.7522 180.589 23.2878 184.065 23.2878Z" fill="white"/>
<path d="M198.356 8.27171V10.7416C199.549 8.73892 201.403 7.73877 204.052 7.73877C208.224 7.73877 210.608 10.4082 210.608 14.9135V25.624H207.561V15.3807C207.561 12.1432 206.137 10.542 203.355 10.542C200.243 10.542 198.356 12.6104 198.356 16.2799V25.624H195.309V8.27171H198.356Z" fill="white"/>
</svg>
