<svg width="200" viewBox="0 0 97 24" fill="none" xmlns="http://www.w3.org/2000/svg"><path fill="white" fill-rule="evenodd" clip-rule="evenodd" d="M71.2524 0.494873C70.5427 0.494873 70.1483 0.494873 69.8897 0.752078C69.631 1.00928 69.631 1.40136 69.631 2.10709V2.10711V2.10712C69.631 2.81286 69.631 3.20493 69.8897 3.46213C70.1483 3.71934 70.5427 3.71934 71.2524 3.71934C71.9622 3.71934 72.3565 3.71934 72.6152 3.46213C72.8738 3.20493 72.8738 2.81285 72.8738 2.10711C72.8738 1.40136 72.8738 1.00928 72.6152 0.752078C72.3596 0.494873 71.9653 0.494873 71.2524 0.494873ZM29.6509 5.72992H26.8371V2.68424C26.8371 2.42704 26.6257 2.21688 26.3671 2.21688H24.4333C24.1747 2.21688 23.9633 2.42704 23.9633 2.68424V5.72992H22.0485C21.7898 5.72992 21.5785 5.94007 21.5785 6.19728V7.96634C21.5785 8.22355 21.7898 8.4337 22.0485 8.4337H23.9633V13.5056C23.9633 16.6674 25.8087 18.3486 28.5784 18.3486C28.9128 18.3486 29.3386 18.3235 29.714 18.2702C29.9443 18.2388 30.1146 18.0412 30.1146 17.8091V16.1216C30.1146 15.8487 29.8812 15.6354 29.6068 15.6574C29.468 15.6699 29.326 15.6731 29.1904 15.6731C27.8055 15.6731 26.8308 15.0363 26.8308 13.4555V8.43056H29.6446C29.9033 8.43056 30.1146 8.22041 30.1146 7.96321V6.19414C30.1209 5.93693 29.9096 5.72992 29.6509 5.72992ZM15.2601 5.47271C13.5945 5.47271 12.2601 6.28824 11.4652 7.69032V6.19414C11.4652 5.93693 11.2538 5.72678 10.9952 5.72678H9.08984C8.83118 5.72678 8.61983 5.93693 8.61983 6.19414V17.7276C8.61983 17.9848 8.83118 18.1949 9.08984 18.1949H10.9983C11.257 18.1949 11.4683 17.9848 11.4683 17.7276V11.4386C11.4683 9.47506 12.6986 8.20159 14.5692 8.20159C16.3894 8.20159 17.5944 9.47506 17.5944 11.4386V17.7276C17.5944 17.9848 17.8057 18.1949 18.0644 18.1949H19.9981C20.2568 18.1949 20.4681 17.9848 20.4681 17.7276V11.081C20.465 7.61504 18.465 5.47271 15.2601 5.47271ZM31.0673 11.8965C31.0673 8.27687 33.9126 5.47271 37.5277 5.47271C40.9125 5.47271 43.6569 8.04789 43.6569 11.6958C43.6569 11.8558 43.6506 12.091 43.638 12.3169C43.6222 12.6399 43.3541 12.894 43.0292 12.894H33.9663C34.3259 14.7289 35.6066 15.8769 37.6318 15.8769C39.0419 15.8769 40.1712 15.2778 40.5466 14.3525C40.6128 14.1926 40.7768 14.0922 40.9503 14.0922H42.9724C43.2531 14.0922 43.455 14.3619 43.3762 14.6317C42.7011 16.9497 40.4393 18.449 37.5782 18.449C33.9126 18.449 31.0673 15.6197 31.0673 11.8965ZM37.3763 8.04789C35.6823 8.04789 34.4521 8.9387 34.042 10.4694H40.556C40.2974 9.04221 39.0955 8.04789 37.3763 8.04789ZM52.7419 5.55426C52.477 5.50722 52.2057 5.47271 51.947 5.47271C50.4612 5.47271 49.3067 6.18786 48.5622 7.38606V6.19414C48.5622 5.93693 48.3509 5.72678 48.0922 5.72678H46.1869C45.9282 5.72678 45.7169 5.93693 45.7169 6.19414V17.7276C45.7169 17.9848 45.9282 18.1949 46.1869 18.1949H48.0953C48.354 18.1949 48.5654 17.9848 48.5654 17.7276V11.5421C48.5654 9.29941 50.0511 8.05103 51.8713 8.05103C52.1016 8.05103 52.3413 8.07612 52.581 8.11376C52.8681 8.16081 53.1299 7.94438 53.1299 7.65581V6.01221C53.1268 5.78638 52.9659 5.5919 52.7419 5.55426ZM64.6911 5.70168H66.6248C66.8834 5.70168 67.0948 5.91184 67.0916 6.16904V17.8813C67.0916 21.3723 64.3472 23.5398 60.7069 23.5398C58.3284 23.5398 54.9625 22.605 54.4799 19.5405C54.4357 19.2582 54.6565 19.0042 54.9436 19.0042H56.871C57.0855 19.0042 57.2716 19.1516 57.3253 19.3586C57.6155 20.516 58.9972 21.1716 60.6312 21.1716C62.6059 21.1716 64.221 19.8981 64.221 17.9848V15.695C63.3251 17.2257 61.7857 18.0914 59.7858 18.0914C56.4515 18.0914 53.7859 15.259 53.7859 11.7679C53.7859 8.27687 56.4515 5.47271 59.7858 5.47271C61.7857 5.47271 63.3251 6.33842 64.221 7.84401V6.16904C64.221 5.91184 64.4324 5.70168 64.6911 5.70168ZM56.6092 11.7711C56.6092 13.835 58.2748 15.4409 60.4041 15.4409C62.5807 15.4409 64.2242 13.8852 64.2242 11.7711C64.2242 9.68208 62.5838 8.10121 60.4041 8.10121C58.2748 8.10121 56.6092 9.73227 56.6092 11.7711ZM82.2837 5.55426C82.0188 5.50722 81.7475 5.47271 81.4888 5.47271C80.003 5.47271 78.8485 6.18786 78.104 7.38606V6.19414C78.104 5.93693 77.8927 5.72678 77.634 5.72678H75.7255C75.4669 5.72678 75.2555 5.93693 75.2555 6.19414V17.7276C75.2555 17.9848 75.4669 18.1949 75.7255 18.1949H77.634C77.8927 18.1949 78.104 17.9848 78.104 17.7276V11.5421C78.104 9.29941 79.5898 8.05103 81.4099 8.05103C81.6402 8.05103 81.88 8.07612 82.1197 8.11376C82.4068 8.16081 82.6686 7.94438 82.6686 7.65581V6.01221C82.6686 5.78638 82.5077 5.5919 82.2837 5.55426ZM83.1418 11.9718C83.1418 8.27687 85.962 5.47271 89.6275 5.47271C93.293 5.47271 96.1384 8.27687 96.1384 11.9718C96.1384 15.6668 93.293 18.4459 89.6275 18.4459C85.962 18.4459 83.1418 15.6668 83.1418 11.9718ZM85.9619 11.975C85.9619 14.0922 87.5518 15.7232 89.6275 15.7232C91.7031 15.7232 93.3182 14.0891 93.3182 11.975C93.3182 9.83264 91.7031 8.20159 89.6275 8.20159C87.5518 8.20159 85.9619 9.83264 85.9619 11.975ZM72.183 5.72991H70.2745C70.0158 5.72991 69.8045 5.94006 69.8045 6.19727V17.7307C69.8045 17.9879 70.0158 18.1981 70.2745 18.1981H72.183C72.4417 18.1981 72.653 17.9879 72.653 17.7307V6.19413C72.6499 5.93692 72.4417 5.72991 72.183 5.72991ZM5.02998 5.72991H5.05522C5.41798 5.72991 5.71136 6.01848 5.71452 6.37919V17.7338C5.71452 17.991 5.50316 18.2012 5.24449 18.2012H3.33601C3.07734 18.2012 2.86599 17.991 2.86599 17.7338V8.56229H1.14677C0.888107 8.56229 0.676758 8.35214 0.676758 8.09493V6.19727C0.676758 5.94006 0.888107 5.72991 1.14677 5.72991H3.33286H5.02998ZM2.92594 0.752078C3.18461 0.494873 3.57893 0.494873 4.28869 0.494873C4.99845 0.494873 5.39276 0.494873 5.65143 0.752078C5.9101 1.00928 5.9101 1.40136 5.9101 2.10711C5.9101 2.81285 5.9101 3.20493 5.65143 3.46213C5.39276 3.71934 4.99845 3.71934 4.28869 3.71934C3.57893 3.71934 3.18461 3.71934 2.92594 3.46213C2.66727 3.20493 2.66727 2.81285 2.66727 2.10711C2.66727 1.40136 2.66727 1.00928 2.92594 0.752078Z"></path></svg>
