<svg width="106" height="22" viewBox="0 0 106 22"><g fill="none"><path d="M90.28 5.31h2.286V3.02H90.28v2.29Zm-50.173 5.674-4.769-1.155c-1.609-.377-2.444-1.273-2.444-2.607 0-1.851 1.71-3.085 4.253-3.085S41.34 5.45 41.519 7.6l.02.278h2.027V7.56c-.1-3.105-2.723-5.315-6.418-5.315-3.695 0-6.259 2.11-6.259 4.996 0 2.309 1.411 3.882 3.934 4.539l4.749 1.154c1.609.38 2.444 1.294 2.444 2.628 0 1.95-1.808 3.166-4.73 3.166-2.921 0-4.689-1.295-4.888-3.544l-.02-.278H30.35v.299c.179 3.324 2.841 5.375 6.915 5.375s6.736-2.01 6.736-5.017c0-2.329-1.39-3.961-3.895-4.578m12.46-3.563c-3.518 0-5.882 2.648-5.882 6.569 0 3.92 2.364 6.548 5.882 6.548s5.921-2.687 5.921-6.548-2.424-6.569-5.921-6.569m0 11.247c-2.364 0-3.895-1.832-3.895-4.678 0-2.847 1.51-4.738 3.895-4.738 2.384 0 3.895 1.832 3.895 4.738 0 2.906-1.49 4.678-3.895 4.678m8.962 1.653h1.928v-17.8h-1.928v17.8Zm24.74-12.898c-1.53 0-2.743.617-3.358 1.931V7.604h-1.89v12.719h1.928v-7.206c0-2.11.874-3.722 2.981-3.722.615 0 1.312.08 1.77.159V7.623c-.318-.1-.915-.2-1.431-.2m4.173 12.898h1.946V7.602h-1.946v12.72Zm12.16-7.046-2.542-.497c-1.69-.338-1.908-1.056-1.908-1.653 0-1.154 1.113-1.892 2.782-1.892s2.742.757 2.841 2.07l.02.26h1.988l-.02-.32c-.1-1.752-1.43-3.821-4.829-3.821-2.742 0-4.749 1.572-4.749 3.742 0 1.832 1.113 2.966 3.397 3.444l2.525.497c1.689.359 1.927 1.016 1.927 1.633 0 1.234-1.113 1.97-3.04 1.97-1.928 0-3.12-.836-3.22-2.249l-.02-.278h-1.988l.02.338c.16 2.468 2.167 4.021 5.206 4.021 3.04 0 5.008-1.552 5.008-3.821 0-1.812-1.132-2.966-3.397-3.444M72.2 7.423c-2.166 0-4.769.995-4.948 3.821l-.02.32h1.947l.02-.26c.218-1.731 1.728-2.09 3-2.09 1.43 0 3.16.439 3.16 2.47v.616l-4.432.756c-2.643.478-4.073 1.791-4.073 3.822 0 1.671 1.113 3.623 4.213 3.623 1.788 0 3.338-.736 4.272-2.07v1.892h1.888v-8.758c0-2.607-1.888-4.14-5.027-4.14m-1.014 7.345 4.173-.717v.697c0 2.747-2.086 3.981-4.133 3.981-1.51 0-2.405-.696-2.405-1.811s.755-1.851 2.364-2.15" fill="currentColor"></path><path d="M2.896 3.697a.315.315 0 0 0-.239.12A10.977 10.977 0 0 0 0 11c0 5.808 4.754 11 10.552 11 2.47 0 4.414-1.54 4.414-4.014 0-2.112-1.526-3.598-3.755-4.543l-3.338-1.419c-2.69-1.144-4.908-3.212-4.908-6.127 0-.495.088-1.353.187-1.838.045-.213-.094-.362-.255-.362M11.409 0c-2.47 0-4.414 1.54-4.414 4.016 0 2.111 1.526 3.597 3.755 4.542l3.338 1.42c2.69 1.143 4.908 3.211 4.908 6.127 0 .494-.088 1.352-.187 1.837-.043.213.094.363.255.363.08 0 .167-.037.239-.121a10.977 10.977 0 0 0 2.657-7.183c0-5.808-4.754-11-10.552-11" fill="#FF6432"></path></g></svg>
