
<?xml version="1.0" encoding="UTF-8"?>
<svg version="1.1" xmlns="http://www.w3.org/2000/svg" width="1496" height="471">
<path d="M0 0 C35.64 0 71.28 0 108 0 C108.08836483 38.82886502 108.1621507 77.65763436 108.20426132 116.48657134 C108.20926348 121.08219357 108.21444084 125.67781559 108.21972656 130.2734375 C108.2207758 131.1882514 108.22182505 132.1030653 108.22290608 133.04560083 C108.24025892 147.81190015 108.27176802 162.57813647 108.30861118 177.34439856 C108.34616379 192.52283708 108.36826594 207.70124287 108.37635398 222.87972593 C108.38181224 232.22769516 108.39898102 241.57548626 108.43166587 250.92340058 C108.45299109 257.3543739 108.45915988 263.78525663 108.45400551 270.21626264 C108.45147135 273.91344408 108.45504511 277.61031677 108.4768219 281.30744171 C108.72368615 325.4751348 97.94809573 365.58786274 71 401 C70.31679687 401.90878906 69.63359375 402.81757813 68.9296875 403.75390625 C44.55850179 434.8433846 9.94352041 456.59776206 -28.1875 466.3125 C-29.13633057 466.55508545 -30.08516113 466.7976709 -31.06274414 467.04760742 C-44.80872303 470.37273562 -58.35993512 471.41211726 -72.4375 471.375 C-73.22036377 471.37445618 -74.00322754 471.37391235 -74.80981445 471.37335205 C-102.5273839 471.28535306 -128.10631864 465.14297415 -153 453 C-153.64775391 452.68836914 -154.29550781 452.37673828 -154.96289062 452.05566406 C-196.53904967 431.82421695 -228.47021155 394.28515505 -244 351 C-256.51003635 313.73502279 -257.92389279 273.64462565 -246 236 C-245.7632959 235.24477051 -245.5265918 234.48954102 -245.28271484 233.71142578 C-239.07589903 214.40269778 -229.63843192 195.88774486 -217 180 C-216.58459961 179.47325684 -216.16919922 178.94651367 -215.74121094 178.40380859 C-185.29357425 140.09459676 -142.39293995 115.94878357 -93.86035156 109.82275391 C-62.79301836 106.3875737 -28.27170006 109.86414997 0 124 C0 83.08 0 42.16 0 0 Z M-129.75 243.9375 C-142.251826 258.87512778 -147.27118335 277.76822605 -146 297 C-143.69439608 316.66051346 -134.79998866 334.42752693 -119.45703125 347.1640625 C-100.72779012 361.15888497 -81.2340424 364.9911017 -58.2265625 362.609375 C-45.78908978 360.16574056 -33.33884147 353.50469252 -24 345 C-23.24332031 344.32324219 -22.48664063 343.64648438 -21.70703125 342.94921875 C-7.7015223 329.74134347 -0.16897864 312.1197167 0.40454102 293.00073242 C0.65970232 270.73743623 -7.08968732 252.89440185 -22.15234375 236.68359375 C-36.42073254 223.10603942 -55.93392197 216.58399001 -75.40234375 216.78515625 C-97.27704574 218.0914631 -115.1316008 228.0339668 -129.75 243.9375 Z " fill="#FFFFFF" transform="translate(1252,0)"/>
<path d="M0 0 C0.67401855 0.28568848 1.34803711 0.57137695 2.04248047 0.86572266 C28.64795473 12.26279112 53.5024671 30.8710772 71 54 C71.73476563 54.93070312 72.46953125 55.86140625 73.2265625 56.8203125 C97.68269036 88.33594119 110.21831146 126.50022309 110.25 166.25 C110.25067474 167.00910675 110.25134949 167.7682135 110.25204468 168.55032349 C110.23505912 180.59308384 109.65178462 192.21058617 107 204 C106.82307617 204.7935791 106.64615234 205.5871582 106.46386719 206.40478516 C98.64486042 240.40193461 81.97878011 269.85065813 58 295 C56.90945313 296.16982422 56.90945313 296.16982422 55.796875 297.36328125 C45.04975889 308.5681449 32.34572929 317.20011859 19 325 C18.38543945 325.36222656 17.77087891 325.72445313 17.13769531 326.09765625 C1.62636548 335.13273499 -15.55050078 340.96619998 -33 345 C-33.7101123 345.16516113 -34.42022461 345.33032227 -35.15185547 345.50048828 C-79.56419287 355.22354245 -128.91281819 345.26415499 -167.2109375 321.4609375 C-186.6005347 309.03568787 -203.20855111 293.35382709 -217 275 C-217.639375 274.15566406 -218.27875 273.31132812 -218.9375 272.44140625 C-246.48775151 234.62358416 -257.28785536 185.94109415 -250.41015625 139.8671875 C-245.16636742 107.98307863 -232.33841047 76.58555988 -211 52 C-210.32710938 51.21753906 -209.65421875 50.43507813 -208.9609375 49.62890625 C-177.87341058 14.30217111 -135.22248974 -9.98504483 -87.65234375 -13.7578125 C-57.56654876 -15.56203833 -27.84498217 -12.0706959 0 0 Z M-126.49609375 119.05859375 C-139.92152204 134.8298067 -145.54121788 154.56898345 -144 175 C-141.41964467 194.19139276 -132.26353417 211.65437193 -117.40234375 224.19140625 C-99.63604055 237.66312105 -79.79603136 242.6484585 -57.77734375 239.70263672 C-43.88836977 237.21720616 -31.40468952 230.35295195 -21 221 C-20.38898438 220.48179687 -19.77796875 219.96359375 -19.1484375 219.4296875 C-9.79994821 210.93494152 -3.70008092 198.89311725 0 187 C0.24492188 186.23042969 0.48984375 185.46085937 0.7421875 184.66796875 C5.70879968 165.24375264 1.04397882 144.90616074 -8.80664062 127.90917969 C-19.0626705 111.50121046 -35.81576616 99.93899509 -54.62890625 95.48828125 C-81.80699587 89.89147532 -107.60124705 99.28363774 -126.49609375 119.05859375 Z " fill="#FFFFFF" transform="translate(567,123)"/>
<path d="M0 0 C23.58182607 21.85173995 35.85895163 49.93411305 39.8125 81.5625 C39.8125 82.5525 39.8125 83.5425 39.8125 84.5625 C6.4825 84.5625 -26.8475 84.5625 -61.1875 84.5625 C-62.1775 80.6025 -63.1675 76.6425 -64.1875 72.5625 C-69.65772038 61.17852787 -76.3935918 54.00121379 -88.32421875 49.3359375 C-103.69512141 44.07995849 -121.96579789 42.79208633 -136.9921875 49.88671875 C-143.46067952 53.4584513 -147.29560203 57.19292918 -149.5 64.375 C-150.77908635 70.41320943 -150.05484682 75.55025537 -147.625 81.1875 C-135.48166036 99.67946282 -106.56375889 103.05306161 -86.73828125 107.875 C-11.36415776 126.23200191 -11.36415776 126.23200191 15.8125 152.5625 C16.74449219 153.38427734 16.74449219 153.38427734 17.6953125 154.22265625 C31.6445995 166.95216255 39.88420848 188.92494918 40.98950195 207.54418945 C41.59912838 238.69828572 35.86790557 262.90700719 14.16967773 286.24829102 C-10.50481276 311.73524973 -49.7445907 324.89715794 -84.71557617 325.72363281 C-86.3038156 325.74313876 -87.89213343 325.75691382 -89.48046875 325.765625 C-90.77071205 325.77621445 -90.77071205 325.77621445 -92.08702087 325.78701782 C-128.10450367 326.01550442 -128.10450367 326.01550442 -144.1875 322.5625 C-145.61835938 322.26448486 -145.61835938 322.26448486 -147.078125 321.96044922 C-186.55910992 313.5137962 -223.19215206 294.23935559 -245.8125 259.8125 C-256.51483509 243.01105928 -263.1875 224.59160052 -263.1875 204.5625 C-227.8775 204.5625 -192.5675 204.5625 -156.1875 204.5625 C-155.1975 208.1925 -154.2075 211.8225 -153.1875 215.5625 C-147.54877917 228.93432368 -139.13625115 235.04458987 -126.20166016 240.77880859 C-120.08333263 243.15939421 -113.70125975 244.10270519 -107.1875 244.5625 C-106.08341797 244.64371094 -106.08341797 244.64371094 -104.95703125 244.7265625 C-92.06244702 245.20173981 -78.48533872 242.43250071 -68.3125 234.25 C-63.28492522 227.8915966 -61.43166064 222.6795484 -61.7421875 214.4609375 C-62.44068 209.91460915 -64.18831174 206.98683093 -67.1875 203.5625 C-67.62578125 203.04300781 -68.0640625 202.52351562 -68.515625 201.98828125 C-76.93339842 193.5483558 -90.49775879 190.30153654 -101.62109375 187.2421875 C-103.24752556 186.79086708 -103.24752556 186.79086708 -104.90681458 186.33042908 C-112.65224813 184.20367837 -120.42766723 182.22085423 -128.23046875 180.31640625 C-129.3118512 180.0524556 -130.39323364 179.78850494 -131.50738525 179.51655579 C-135.89786273 178.44848449 -140.28908339 177.38400173 -144.68432617 176.33569336 C-180.61209825 167.74178938 -219.06773717 155.14487765 -240.1875 122.5625 C-244.84448902 114.64457683 -247.91717982 106.44731069 -250.1875 97.5625 C-250.414375 96.67820313 -250.64125 95.79390625 -250.875 94.8828125 C-256.46287811 68.10756324 -250.63944931 40.26598796 -235.8059082 17.58203125 C-231.53030403 11.34733503 -226.51483057 5.90547618 -221.1875 0.5625 C-220.50558594 -0.14261719 -219.82367188 -0.84773438 -219.12109375 -1.57421875 C-199.12714295 -20.86388166 -169.08428791 -30.55248048 -142.1875 -34.4375 C-141.49994629 -34.54046387 -140.81239258 -34.64342773 -140.10400391 -34.74951172 C-90.90064054 -41.83291609 -38.16658147 -33.30795223 0 0 Z " fill="#FFFFFF" transform="translate(263.1875,145.4375)"/>
<path d="M0 0 C35.97 0 71.94 0 109 0 C109 153.78 109 307.56 109 466 C73.03 466 37.06 466 0 466 C0 312.22 0 158.44 0 0 Z " fill="#FFFFFF" transform="translate(705,0)"/>
<path d="M0 0 C35.97 0 71.94 0 109 0 C109 104.28 109 208.56 109 316 C73.03 316 37.06 316 0 316 C0 211.72 0 107.44 0 0 Z " fill="#FFFFFF" transform="translate(861,150)"/>
<path d="M0 0 C35.64 0 71.28 0 108 0 C108 37.62 108 75.24 108 114 C72.36 114 36.72 114 0 114 C0 76.38 0 38.76 0 0 Z " fill="#FFFFFF" transform="translate(861,0)"/>
<path d="M0 0 C1.1821995 0.00138269 1.1821995 0.00138269 2.38828182 0.00279331 C3.73799116 0.00072707 3.73799116 0.00072707 5.11496735 -0.00138092 C6.11378402 0.00221719 7.11260069 0.0058153 8.14168453 0.00952244 C9.20240893 0.0094019 10.26313334 0.00928137 11.3560009 0.00915718 C14.80728814 0.00990667 18.25852212 0.01753652 21.70979977 0.02539158 C23.83345673 0.02686089 25.95711405 0.02788167 28.08077145 0.02844334 C35.97665097 0.03369751 43.87252276 0.04765857 51.76839352 0.06054783 C78.21995602 0.09148533 78.21995602 0.09148533 105.20589352 0.12304783 C105.20589352 35.43304783 105.20589352 70.74304783 105.20589352 107.12304783 C69.56589352 107.12304783 33.92589352 107.12304783 -2.79410648 107.12304783 C-2.81473148 89.65367283 -2.83535648 72.18429783 -2.85660648 54.18554783 C-2.86571049 48.66070652 -2.87481449 43.13586521 -2.88419437 37.44360447 C-2.88871098 30.71960545 -2.88871098 30.71960545 -2.88955021 27.57615757 C-2.89109017 25.37119947 -2.89461615 23.16624223 -2.89968204 20.96128941 C-2.90695626 17.62985861 -2.90801401 14.29847947 -2.90763187 10.96704197 C-2.91122998 9.97759366 -2.91482809 8.98814535 -2.91853523 7.96871376 C-2.91715774 7.07730407 -2.91578024 6.18589437 -2.914361 5.26747227 C-2.91528279 4.48671361 -2.91620459 3.70595495 -2.91715431 2.90153694 C-2.7486879 0.46658392 -2.43413505 0.16694384 0 0 Z " fill="#FFFFFF" transform="translate(1390.7941064834595,363.8769521713257)"/>
</svg>
