
<svg xmlns="http://www.w3.org/2000/svg" xmlns:xlink="http://www.w3.org/1999/xlink" width="300" zoomAndPan="magnify" viewBox="0 0 224.87999 44.999999" height="60" preserveAspectRatio="xMidYMid meet" version="1.0"><defs><g/><clipPath id="36cdecad88"><path d="M 184.566406 33.574219 L 191.484375 33.574219 L 191.484375 40.492188 L 184.566406 40.492188 Z M 184.566406 33.574219 " clip-rule="nonzero"/></clipPath><clipPath id="40f9e7b1ca"><path d="M 188.027344 33.574219 C 186.117188 33.574219 184.566406 35.121094 184.566406 37.03125 C 184.566406 38.941406 186.117188 40.492188 188.027344 40.492188 C 189.9375 40.492188 191.484375 38.941406 191.484375 37.03125 C 191.484375 35.121094 189.9375 33.574219 188.027344 33.574219 Z M 188.027344 33.574219 " clip-rule="nonzero"/></clipPath><clipPath id="81fcd0e301"><path d="M 0 0.0117188 L 41.226562 0.0117188 L 41.226562 43.488281 L 0 43.488281 Z M 0 0.0117188 " clip-rule="nonzero"/></clipPath><clipPath id="04f9ac3fbb"><path d="M 23.683594 20.265625 L 5.28125 20.265625 C 4.566406 20.265625 4.050781 19.582031 4.242188 18.890625 L 9.296875 0.800781 C 9.425781 0.335938 9.851562 0.0117188 10.332031 0.0117188 L 28.734375 0.0117188 C 29.449219 0.0117188 29.964844 0.695312 29.773438 1.386719 L 24.71875 19.476562 C 24.589844 19.945312 24.167969 20.265625 23.683594 20.265625 Z M 11.730469 33.921875 L 14.332031 24.609375 C 14.523438 23.917969 14.007812 23.234375 13.292969 23.234375 L 3.835938 23.234375 C 3.351562 23.234375 2.929688 23.554688 2.796875 24.023438 L 0.195312 33.339844 C 0.00390625 34.027344 0.519531 34.714844 1.234375 34.714844 L 10.695312 34.714844 C 11.175781 34.714844 11.601562 34.390625 11.730469 33.921875 Z M 16.519531 24.023438 L 11.464844 42.113281 C 11.273438 42.804688 11.789062 43.488281 12.503906 43.488281 L 30.90625 43.488281 C 31.386719 43.488281 31.8125 43.164062 31.941406 42.699219 L 36.996094 24.609375 C 37.1875 23.917969 36.671875 23.234375 35.957031 23.234375 L 17.554688 23.234375 C 17.070312 23.234375 16.648438 23.554688 16.519531 24.023438 Z M 29.507812 9.578125 L 26.90625 18.890625 C 26.714844 19.582031 27.230469 20.265625 27.945312 20.265625 L 37.402344 20.265625 C 37.886719 20.265625 38.308594 19.945312 38.441406 19.476562 L 41.042969 10.164062 C 41.234375 9.472656 40.71875 8.789062 40.003906 8.789062 L 30.542969 8.789062 C 30.0625 8.789062 29.636719 9.109375 29.507812 9.578125 Z M 29.507812 9.578125 " clip-rule="nonzero"/></clipPath><linearGradient x1="114.296451" gradientTransform="matrix(0.0865389, 0, 0, 0.0869536, 0.156202, 0.0120005)" y1="-47.633948" x2="358.611584" gradientUnits="userSpaceOnUse" y2="547.609006" id="411628df47"><stop stop-opacity="1" stop-color="rgb(0%, 98.799133%, 65.899658%)" offset="0"/><stop stop-opacity="1" stop-color="rgb(0%, 98.799133%, 65.899658%)" offset="0.0625"/><stop stop-opacity="1" stop-color="rgb(0.0213623%, 98.773193%, 65.965271%)" offset="0.09375"/><stop stop-opacity="1" stop-color="rgb(0.100708%, 98.677063%, 66.210938%)" offset="0.101562"/><stop stop-opacity="1" stop-color="rgb(0.216675%, 98.536682%, 66.571045%)" offset="0.109375"/><stop stop-opacity="1" stop-color="rgb(0.332642%, 98.396301%, 66.929626%)" offset="0.117188"/><stop stop-opacity="1" stop-color="rgb(0.448608%, 98.25592%, 67.289734%)" offset="0.125"/><stop stop-opacity="1" stop-color="rgb(0.564575%, 98.117065%, 67.649841%)" offset="0.132813"/><stop stop-opacity="1" stop-color="rgb(0.679016%, 97.976685%, 68.008423%)" offset="0.140625"/><stop stop-opacity="1" stop-color="rgb(0.794983%, 97.836304%, 68.36853%)" offset="0.148438"/><stop stop-opacity="1" stop-color="rgb(0.91095%, 97.695923%, 68.727112%)" offset="0.15625"/><stop stop-opacity="1" stop-color="rgb(1.026917%, 97.555542%, 69.087219%)" offset="0.164063"/><stop stop-opacity="1" stop-color="rgb(1.142883%, 97.415161%, 69.445801%)" offset="0.171875"/><stop stop-opacity="1" stop-color="rgb(1.25885%, 97.27478%, 69.805908%)" offset="0.179688"/><stop stop-opacity="1" stop-color="rgb(1.374817%, 97.135925%, 70.16449%)" offset="0.1875"/><stop stop-opacity="1" stop-color="rgb(1.490784%, 96.995544%, 70.524597%)" offset="0.195312"/><stop stop-opacity="1" stop-color="rgb(1.60675%, 96.855164%, 70.883179%)" offset="0.203125"/><stop stop-opacity="1" stop-color="rgb(1.722717%, 96.714783%, 71.243286%)" offset="0.210938"/><stop stop-opacity="1" stop-color="rgb(1.838684%, 96.574402%, 71.603394%)" offset="0.21875"/><stop stop-opacity="1" stop-color="rgb(1.954651%, 96.434021%, 71.961975%)" offset="0.226562"/><stop stop-opacity="1" stop-color="rgb(2.070618%, 96.29364%, 72.322083%)" offset="0.234375"/><stop stop-opacity="1" stop-color="rgb(2.186584%, 96.153259%, 72.680664%)" offset="0.242188"/><stop stop-opacity="1" stop-color="rgb(2.302551%, 96.014404%, 73.040771%)" offset="0.25"/><stop stop-opacity="1" stop-color="rgb(2.418518%, 95.874023%, 73.399353%)" offset="0.257813"/><stop stop-opacity="1" stop-color="rgb(2.534485%, 95.733643%, 73.75946%)" offset="0.265625"/><stop stop-opacity="1" stop-color="rgb(2.650452%, 95.593262%, 74.118042%)" offset="0.273438"/><stop stop-opacity="1" stop-color="rgb(2.766418%, 95.452881%, 74.478149%)" offset="0.281115"/><stop stop-opacity="1" stop-color="rgb(2.824402%, 95.38269%, 74.658203%)" offset="0.28125"/><stop stop-opacity="1" stop-color="rgb(2.882385%, 95.3125%, 74.836731%)" offset="0.289063"/><stop stop-opacity="1" stop-color="rgb(2.998352%, 95.172119%, 75.196838%)" offset="0.296875"/><stop stop-opacity="1" stop-color="rgb(3.114319%, 95.031738%, 75.556946%)" offset="0.304688"/><stop stop-opacity="1" stop-color="rgb(3.230286%, 94.892883%, 75.915527%)" offset="0.3125"/><stop stop-opacity="1" stop-color="rgb(3.346252%, 94.752502%, 76.275635%)" offset="0.320313"/><stop stop-opacity="1" stop-color="rgb(3.462219%, 94.612122%, 76.634216%)" offset="0.328125"/><stop stop-opacity="1" stop-color="rgb(3.578186%, 94.471741%, 76.994324%)" offset="0.335938"/><stop stop-opacity="1" stop-color="rgb(3.694153%, 94.33136%, 77.352905%)" offset="0.34375"/><stop stop-opacity="1" stop-color="rgb(3.81012%, 94.190979%, 77.713013%)" offset="0.351562"/><stop stop-opacity="1" stop-color="rgb(3.926086%, 94.050598%, 78.071594%)" offset="0.359375"/><stop stop-opacity="1" stop-color="rgb(4.042053%, 93.911743%, 78.431702%)" offset="0.367188"/><stop stop-opacity="1" stop-color="rgb(4.15802%, 93.771362%, 78.790283%)" offset="0.375"/><stop stop-opacity="1" stop-color="rgb(4.273987%, 93.630981%, 79.150391%)" offset="0.382813"/><stop stop-opacity="1" stop-color="rgb(4.389954%, 93.490601%, 79.510498%)" offset="0.390625"/><stop stop-opacity="1" stop-color="rgb(4.50592%, 93.35022%, 79.86908%)" offset="0.398438"/><stop stop-opacity="1" stop-color="rgb(4.621887%, 93.209839%, 80.229187%)" offset="0.40625"/><stop stop-opacity="1" stop-color="rgb(4.737854%, 93.069458%, 80.587769%)" offset="0.414062"/><stop stop-opacity="1" stop-color="rgb(4.853821%, 92.929077%, 80.947876%)" offset="0.421875"/><stop stop-opacity="1" stop-color="rgb(4.969788%, 92.790222%, 81.306458%)" offset="0.429688"/><stop stop-opacity="1" stop-color="rgb(5.085754%, 92.649841%, 81.666565%)" offset="0.4375"/><stop stop-opacity="1" stop-color="rgb(5.201721%, 92.50946%, 82.025146%)" offset="0.445312"/><stop stop-opacity="1" stop-color="rgb(5.317688%, 92.36908%, 82.385254%)" offset="0.453125"/><stop stop-opacity="1" stop-color="rgb(5.433655%, 92.228699%, 82.743835%)" offset="0.460938"/><stop stop-opacity="1" stop-color="rgb(5.549622%, 92.088318%, 83.103943%)" offset="0.46875"/><stop stop-opacity="1" stop-color="rgb(5.665588%, 91.947937%, 83.46405%)" offset="0.476562"/><stop stop-opacity="1" stop-color="rgb(5.781555%, 91.807556%, 83.822632%)" offset="0.484375"/><stop stop-opacity="1" stop-color="rgb(5.897522%, 91.668701%, 84.182739%)" offset="0.492188"/><stop stop-opacity="1" stop-color="rgb(6.013489%, 91.52832%, 84.541321%)" offset="0.5"/><stop stop-opacity="1" stop-color="rgb(6.129456%, 91.387939%, 84.901428%)" offset="0.507812"/><stop stop-opacity="1" stop-color="rgb(6.245422%, 91.247559%, 85.26001%)" offset="0.515625"/><stop stop-opacity="1" stop-color="rgb(6.361389%, 91.107178%, 85.620117%)" offset="0.523438"/><stop stop-opacity="1" stop-color="rgb(6.477356%, 90.966797%, 85.978699%)" offset="0.53125"/><stop stop-opacity="1" stop-color="rgb(6.593323%, 90.826416%, 86.338806%)" offset="0.539063"/><stop stop-opacity="1" stop-color="rgb(6.70929%, 90.687561%, 86.697388%)" offset="0.546875"/><stop stop-opacity="1" stop-color="rgb(6.825256%, 90.54718%, 87.057495%)" offset="0.554688"/><stop stop-opacity="1" stop-color="rgb(6.941223%, 90.406799%, 87.417603%)" offset="0.5625"/><stop stop-opacity="1" stop-color="rgb(7.05719%, 90.266418%, 87.776184%)" offset="0.570313"/><stop stop-opacity="1" stop-color="rgb(7.173157%, 90.126038%, 88.136292%)" offset="0.578125"/><stop stop-opacity="1" stop-color="rgb(7.287598%, 89.985657%, 88.494873%)" offset="0.585938"/><stop stop-opacity="1" stop-color="rgb(7.403564%, 89.845276%, 88.85498%)" offset="0.59375"/><stop stop-opacity="1" stop-color="rgb(7.519531%, 89.704895%, 89.213562%)" offset="0.601563"/><stop stop-opacity="1" stop-color="rgb(7.635498%, 89.56604%, 89.573669%)" offset="0.609375"/><stop stop-opacity="1" stop-color="rgb(7.751465%, 89.425659%, 89.932251%)" offset="0.617188"/><stop stop-opacity="1" stop-color="rgb(7.867432%, 89.285278%, 90.292358%)" offset="0.625"/><stop stop-opacity="1" stop-color="rgb(7.983398%, 89.144897%, 90.65094%)" offset="0.632813"/><stop stop-opacity="1" stop-color="rgb(8.099365%, 89.004517%, 91.011047%)" offset="0.640625"/><stop stop-opacity="1" stop-color="rgb(8.215332%, 88.864136%, 91.371155%)" offset="0.648438"/><stop stop-opacity="1" stop-color="rgb(8.331299%, 88.723755%, 91.729736%)" offset="0.65625"/><stop stop-opacity="1" stop-color="rgb(8.447266%, 88.583374%, 92.089844%)" offset="0.664063"/><stop stop-opacity="1" stop-color="rgb(8.563232%, 88.444519%, 92.448425%)" offset="0.671875"/><stop stop-opacity="1" stop-color="rgb(8.679199%, 88.304138%, 92.808533%)" offset="0.679688"/><stop stop-opacity="1" stop-color="rgb(8.795166%, 88.163757%, 93.167114%)" offset="0.6875"/><stop stop-opacity="1" stop-color="rgb(8.911133%, 88.023376%, 93.527222%)" offset="0.695312"/><stop stop-opacity="1" stop-color="rgb(9.0271%, 87.882996%, 93.885803%)" offset="0.703125"/><stop stop-opacity="1" stop-color="rgb(9.143066%, 87.742615%, 94.245911%)" offset="0.710938"/><stop stop-opacity="1" stop-color="rgb(9.259033%, 87.602234%, 94.604492%)" offset="0.71875"/><stop stop-opacity="1" stop-color="rgb(9.375%, 87.463379%, 94.9646%)" offset="0.718885"/><stop stop-opacity="1" stop-color="rgb(9.432983%, 87.393188%, 95.144653%)" offset="0.726562"/><stop stop-opacity="1" stop-color="rgb(9.490967%, 87.322998%, 95.324707%)" offset="0.734375"/><stop stop-opacity="1" stop-color="rgb(9.606934%, 87.182617%, 95.683289%)" offset="0.742188"/><stop stop-opacity="1" stop-color="rgb(9.7229%, 87.042236%, 96.043396%)" offset="0.75"/><stop stop-opacity="1" stop-color="rgb(9.838867%, 86.901855%, 96.401978%)" offset="0.757812"/><stop stop-opacity="1" stop-color="rgb(9.954834%, 86.761475%, 96.762085%)" offset="0.765625"/><stop stop-opacity="1" stop-color="rgb(10.070801%, 86.621094%, 97.120667%)" offset="0.773438"/><stop stop-opacity="1" stop-color="rgb(10.186768%, 86.480713%, 97.480774%)" offset="0.78125"/><stop stop-opacity="1" stop-color="rgb(10.302734%, 86.341858%, 97.839355%)" offset="0.789063"/><stop stop-opacity="1" stop-color="rgb(10.418701%, 86.201477%, 98.199463%)" offset="0.796875"/><stop stop-opacity="1" stop-color="rgb(10.534668%, 86.061096%, 98.558044%)" offset="0.804688"/><stop stop-opacity="1" stop-color="rgb(10.650635%, 85.920715%, 98.918152%)" offset="0.8125"/><stop stop-opacity="1" stop-color="rgb(10.766602%, 85.780334%, 99.278259%)" offset="0.820313"/><stop stop-opacity="1" stop-color="rgb(10.882568%, 85.639954%, 99.636841%)" offset="0.828125"/><stop stop-opacity="1" stop-color="rgb(10.969543%, 85.534668%, 99.908447%)" offset="0.84375"/><stop stop-opacity="1" stop-color="rgb(10.998535%, 85.499573%, 100%)" offset="0.875"/><stop stop-opacity="1" stop-color="rgb(10.998535%, 85.499573%, 100%)" offset="1"/></linearGradient></defs><g fill="#ffffff" fill-opacity="1"><g transform="translate(42.659564, 39.09521)"><g><path d="M 14.203125 -2.046875 C 14.273438 -1.734375 14.3125 -1.410156 14.3125 -1.078125 C 14.3125 -0.710938 14.238281 -0.441406 14.09375 -0.265625 C 13.945312 -0.0859375 13.695312 0 13.34375 0 L 3.703125 0 C 3.242188 0 2.90625 -0.0390625 2.6875 -0.125 C 2.46875 -0.21875 2.3125 -0.367188 2.21875 -0.578125 C 2.132812 -0.785156 2.09375 -1.097656 2.09375 -1.515625 L 2.09375 -18.984375 C 2.3125 -19.035156 2.613281 -19.0625 3 -19.0625 C 3.382812 -19.0625 3.664062 -19.035156 3.84375 -18.984375 C 4.03125 -18.929688 4.15625 -18.835938 4.21875 -18.703125 C 4.28125 -18.578125 4.3125 -18.367188 4.3125 -18.078125 L 4.3125 -2.046875 Z M 14.203125 -2.046875 "/></g></g></g><g fill="#ffffff" fill-opacity="1"><g transform="translate(57.496167, 39.09521)"><g><path d="M 18.359375 0 C 18.203125 0.03125 18.019531 0.0507812 17.8125 0.0625 C 17.601562 0.0703125 17.414062 0.078125 17.25 0.078125 C 16.726562 0.078125 16.34375 0.015625 16.09375 -0.109375 C 15.851562 -0.242188 15.644531 -0.515625 15.46875 -0.921875 L 13.578125 -5.40625 L 4.09375 -5.40625 C 3.363281 -3.570312 2.796875 -1.769531 2.390625 0 C 2.128906 0.0507812 1.847656 0.078125 1.546875 0.078125 C 1.148438 0.078125 0.859375 0.0195312 0.671875 -0.09375 C 0.484375 -0.21875 0.390625 -0.414062 0.390625 -0.6875 C 0.390625 -0.925781 0.445312 -1.289062 0.5625 -1.78125 C 0.675781 -2.269531 0.820312 -2.769531 1 -3.28125 C 1.644531 -5.207031 2.628906 -7.488281 3.953125 -10.125 C 5.273438 -12.757812 6.632812 -15.269531 8.03125 -17.65625 L 7.4375 -19.25 C 7.675781 -19.300781 7.972656 -19.328125 8.328125 -19.328125 C 8.765625 -19.328125 9.109375 -19.273438 9.359375 -19.171875 C 9.617188 -19.066406 9.84375 -18.882812 10.03125 -18.625 C 10.226562 -18.363281 10.445312 -17.953125 10.6875 -17.390625 Z M 12.765625 -7.296875 L 9.171875 -15.84375 C 7.503906 -12.96875 6.066406 -10.117188 4.859375 -7.296875 Z M 12.765625 -7.296875 "/></g></g></g><g fill="#ffffff" fill-opacity="1"><g transform="translate(76.24543, 39.09521)"><g><path d="M 7.515625 -1.546875 C 8.441406 -1.546875 9.253906 -1.6875 9.953125 -1.96875 C 10.648438 -2.25 11.191406 -2.660156 11.578125 -3.203125 C 11.960938 -3.742188 12.15625 -4.390625 12.15625 -5.140625 C 12.15625 -5.796875 11.984375 -6.332031 11.640625 -6.75 C 11.304688 -7.164062 10.804688 -7.515625 10.140625 -7.796875 C 9.472656 -8.078125 8.578125 -8.347656 7.453125 -8.609375 C 6.140625 -8.929688 5.054688 -9.285156 4.203125 -9.671875 C 3.347656 -10.066406 2.65625 -10.617188 2.125 -11.328125 C 1.601562 -12.035156 1.34375 -12.953125 1.34375 -14.078125 C 1.34375 -15.128906 1.617188 -16.050781 2.171875 -16.84375 C 2.734375 -17.644531 3.503906 -18.257812 4.484375 -18.6875 C 5.472656 -19.113281 6.578125 -19.328125 7.796875 -19.328125 C 8.941406 -19.328125 9.972656 -19.191406 10.890625 -18.921875 C 11.804688 -18.648438 12.535156 -18.332031 13.078125 -17.96875 C 13.378906 -17.757812 13.582031 -17.570312 13.6875 -17.40625 C 13.789062 -17.25 13.84375 -17.078125 13.84375 -16.890625 C 13.84375 -16.628906 13.769531 -16.367188 13.625 -16.109375 C 13.488281 -15.859375 13.296875 -15.65625 13.046875 -15.5 C 12.335938 -16.039062 11.519531 -16.484375 10.59375 -16.828125 C 9.675781 -17.179688 8.742188 -17.359375 7.796875 -17.359375 C 6.960938 -17.359375 6.21875 -17.21875 5.5625 -16.9375 C 4.914062 -16.65625 4.414062 -16.269531 4.0625 -15.78125 C 3.71875 -15.289062 3.546875 -14.738281 3.546875 -14.125 C 3.546875 -13.476562 3.679688 -12.945312 3.953125 -12.53125 C 4.222656 -12.125 4.671875 -11.78125 5.296875 -11.5 C 5.929688 -11.21875 6.828125 -10.9375 7.984375 -10.65625 C 9.390625 -10.3125 10.550781 -9.925781 11.46875 -9.5 C 12.382812 -9.082031 13.101562 -8.523438 13.625 -7.828125 C 14.15625 -7.128906 14.421875 -6.226562 14.421875 -5.125 C 14.421875 -4 14.128906 -3.019531 13.546875 -2.1875 C 12.972656 -1.363281 12.164062 -0.722656 11.125 -0.265625 C 10.082031 0.191406 8.867188 0.421875 7.484375 0.421875 C 6.066406 0.421875 4.898438 0.273438 3.984375 -0.015625 C 3.078125 -0.316406 2.273438 -0.710938 1.578125 -1.203125 C 1.046875 -1.585938 0.78125 -1.972656 0.78125 -2.359375 C 0.78125 -2.816406 1.082031 -3.28125 1.6875 -3.75 C 2.28125 -3.15625 3.066406 -2.640625 4.046875 -2.203125 C 5.023438 -1.765625 6.179688 -1.546875 7.515625 -1.546875 Z M 7.515625 -1.546875 "/></g></g></g><g fill="#ffffff" fill-opacity="1"><g transform="translate(91.974859, 39.09521)"><g><path d="M 15.34375 -2 C 15.40625 -1.675781 15.4375 -1.359375 15.4375 -1.046875 C 15.4375 -0.679688 15.363281 -0.414062 15.21875 -0.25 C 15.070312 -0.0820312 14.820312 0 14.46875 0 L 4.234375 0 C 3.847656 0 3.5625 -0.0390625 3.375 -0.125 C 3.1875 -0.21875 3.050781 -0.367188 2.96875 -0.578125 C 2.894531 -0.785156 2.859375 -1.097656 2.859375 -1.515625 L 2.859375 -16.921875 L 0.375 -16.921875 C 0.332031 -17.035156 0.300781 -17.179688 0.28125 -17.359375 C 0.269531 -17.535156 0.265625 -17.71875 0.265625 -17.90625 C 0.265625 -18.289062 0.347656 -18.550781 0.515625 -18.6875 C 0.679688 -18.832031 0.984375 -18.90625 1.421875 -18.90625 L 14.78125 -18.90625 C 14.851562 -18.59375 14.890625 -18.28125 14.890625 -17.96875 C 14.890625 -17.601562 14.816406 -17.335938 14.671875 -17.171875 C 14.523438 -17.003906 14.273438 -16.921875 13.921875 -16.921875 L 5.0625 -16.921875 L 5.0625 -10.828125 L 12.375 -10.828125 C 12.4375 -10.503906 12.46875 -10.1875 12.46875 -9.875 C 12.46875 -9.507812 12.394531 -9.242188 12.25 -9.078125 C 12.101562 -8.910156 11.851562 -8.828125 11.5 -8.828125 L 5.0625 -8.828125 L 5.0625 -2 Z M 15.34375 -2 "/></g></g></g><g fill="#ffffff" fill-opacity="1"><g transform="translate(108.597103, 39.09521)"><g><path d="M 17.171875 -0.203125 C 16.679688 0.0351562 16.160156 0.15625 15.609375 0.15625 C 15.273438 0.15625 15 0.0703125 14.78125 -0.09375 C 14.570312 -0.257812 14.347656 -0.5625 14.109375 -1 L 10.328125 -7.53125 C 9.765625 -7.476562 9.1875 -7.453125 8.59375 -7.453125 L 5.0625 -7.453125 L 5.0625 0.03125 C 4.851562 0.0820312 4.554688 0.109375 4.171875 0.109375 C 3.785156 0.109375 3.5 0.0820312 3.3125 0.03125 C 3.132812 -0.0195312 3.015625 -0.113281 2.953125 -0.25 C 2.890625 -0.382812 2.859375 -0.597656 2.859375 -0.890625 L 2.859375 -16.921875 L 0.375 -16.921875 C 0.332031 -17.035156 0.300781 -17.179688 0.28125 -17.359375 C 0.269531 -17.535156 0.265625 -17.71875 0.265625 -17.90625 C 0.265625 -18.289062 0.347656 -18.550781 0.515625 -18.6875 C 0.679688 -18.832031 0.984375 -18.90625 1.421875 -18.90625 L 8.59375 -18.90625 C 11.125 -18.90625 13.015625 -18.429688 14.265625 -17.484375 C 15.523438 -16.546875 16.15625 -15.101562 16.15625 -13.15625 C 16.15625 -11.8125 15.847656 -10.710938 15.234375 -9.859375 C 14.617188 -9.015625 13.707031 -8.378906 12.5 -7.953125 Z M 8.53125 -9.515625 C 9.726562 -9.515625 10.703125 -9.613281 11.453125 -9.8125 C 12.203125 -10.007812 12.78125 -10.367188 13.1875 -10.890625 C 13.601562 -11.421875 13.8125 -12.164062 13.8125 -13.125 C 13.8125 -14.476562 13.378906 -15.445312 12.515625 -16.03125 C 11.648438 -16.625 10.320312 -16.921875 8.53125 -16.921875 L 5.0625 -16.921875 L 5.0625 -9.515625 Z M 8.53125 -9.515625 "/></g></g></g><g fill="#ffffff" fill-opacity="1"><g transform="translate(126.821179, 39.09521)"><g><path d="M 18.359375 0 C 18.203125 0.03125 18.019531 0.0507812 17.8125 0.0625 C 17.601562 0.0703125 17.414062 0.078125 17.25 0.078125 C 16.726562 0.078125 16.34375 0.015625 16.09375 -0.109375 C 15.851562 -0.242188 15.644531 -0.515625 15.46875 -0.921875 L 13.578125 -5.40625 L 4.09375 -5.40625 C 3.363281 -3.570312 2.796875 -1.769531 2.390625 0 C 2.128906 0.0507812 1.847656 0.078125 1.546875 0.078125 C 1.148438 0.078125 0.859375 0.0195312 0.671875 -0.09375 C 0.484375 -0.21875 0.390625 -0.414062 0.390625 -0.6875 C 0.390625 -0.925781 0.445312 -1.289062 0.5625 -1.78125 C 0.675781 -2.269531 0.820312 -2.769531 1 -3.28125 C 1.644531 -5.207031 2.628906 -7.488281 3.953125 -10.125 C 5.273438 -12.757812 6.632812 -15.269531 8.03125 -17.65625 L 7.4375 -19.25 C 7.675781 -19.300781 7.972656 -19.328125 8.328125 -19.328125 C 8.765625 -19.328125 9.109375 -19.273438 9.359375 -19.171875 C 9.617188 -19.066406 9.84375 -18.882812 10.03125 -18.625 C 10.226562 -18.363281 10.445312 -17.953125 10.6875 -17.390625 Z M 12.765625 -7.296875 L 9.171875 -15.84375 C 7.503906 -12.96875 6.066406 -10.117188 4.859375 -7.296875 Z M 12.765625 -7.296875 "/></g></g></g><g fill="#ffffff" fill-opacity="1"><g transform="translate(145.570442, 39.09521)"><g><path d="M 8.328125 -18.90625 C 11.804688 -18.90625 14.378906 -18.082031 16.046875 -16.4375 C 17.710938 -14.789062 18.546875 -12.460938 18.546875 -9.453125 C 18.546875 -6.460938 17.703125 -4.140625 16.015625 -2.484375 C 14.335938 -0.828125 11.8125 0 8.4375 0 L 4.234375 0 C 3.847656 0 3.5625 -0.0390625 3.375 -0.125 C 3.1875 -0.21875 3.050781 -0.367188 2.96875 -0.578125 C 2.894531 -0.785156 2.859375 -1.097656 2.859375 -1.515625 L 2.859375 -17 L 0.375 -17 C 0.300781 -17.238281 0.265625 -17.539062 0.265625 -17.90625 C 0.265625 -18.289062 0.347656 -18.550781 0.515625 -18.6875 C 0.679688 -18.832031 0.984375 -18.90625 1.421875 -18.90625 Z M 8.359375 -2.015625 C 10.265625 -2.015625 11.796875 -2.300781 12.953125 -2.875 C 14.109375 -3.445312 14.9375 -4.273438 15.4375 -5.359375 C 15.945312 -6.441406 16.203125 -7.804688 16.203125 -9.453125 C 16.203125 -11.097656 15.929688 -12.472656 15.390625 -13.578125 C 14.847656 -14.679688 13.976562 -15.515625 12.78125 -16.078125 C 11.59375 -16.640625 10.035156 -16.921875 8.109375 -16.921875 L 5.0625 -16.921875 L 5.0625 -2.015625 Z M 8.359375 -2.015625 "/></g></g></g><g fill="#ffffff" fill-opacity="1"><g transform="translate(165.422602, 39.09521)"><g><path d="M 7.515625 -1.546875 C 8.441406 -1.546875 9.253906 -1.6875 9.953125 -1.96875 C 10.648438 -2.25 11.191406 -2.660156 11.578125 -3.203125 C 11.960938 -3.742188 12.15625 -4.390625 12.15625 -5.140625 C 12.15625 -5.796875 11.984375 -6.332031 11.640625 -6.75 C 11.304688 -7.164062 10.804688 -7.515625 10.140625 -7.796875 C 9.472656 -8.078125 8.578125 -8.347656 7.453125 -8.609375 C 6.140625 -8.929688 5.054688 -9.285156 4.203125 -9.671875 C 3.347656 -10.066406 2.65625 -10.617188 2.125 -11.328125 C 1.601562 -12.035156 1.34375 -12.953125 1.34375 -14.078125 C 1.34375 -15.128906 1.617188 -16.050781 2.171875 -16.84375 C 2.734375 -17.644531 3.503906 -18.257812 4.484375 -18.6875 C 5.472656 -19.113281 6.578125 -19.328125 7.796875 -19.328125 C 8.941406 -19.328125 9.972656 -19.191406 10.890625 -18.921875 C 11.804688 -18.648438 12.535156 -18.332031 13.078125 -17.96875 C 13.378906 -17.757812 13.582031 -17.570312 13.6875 -17.40625 C 13.789062 -17.25 13.84375 -17.078125 13.84375 -16.890625 C 13.84375 -16.628906 13.769531 -16.367188 13.625 -16.109375 C 13.488281 -15.859375 13.296875 -15.65625 13.046875 -15.5 C 12.335938 -16.039062 11.519531 -16.484375 10.59375 -16.828125 C 9.675781 -17.179688 8.742188 -17.359375 7.796875 -17.359375 C 6.960938 -17.359375 6.21875 -17.21875 5.5625 -16.9375 C 4.914062 -16.65625 4.414062 -16.269531 4.0625 -15.78125 C 3.71875 -15.289062 3.546875 -14.738281 3.546875 -14.125 C 3.546875 -13.476562 3.679688 -12.945312 3.953125 -12.53125 C 4.222656 -12.125 4.671875 -11.78125 5.296875 -11.5 C 5.929688 -11.21875 6.828125 -10.9375 7.984375 -10.65625 C 9.390625 -10.3125 10.550781 -9.925781 11.46875 -9.5 C 12.382812 -9.082031 13.101562 -8.523438 13.625 -7.828125 C 14.15625 -7.128906 14.421875 -6.226562 14.421875 -5.125 C 14.421875 -4 14.128906 -3.019531 13.546875 -2.1875 C 12.972656 -1.363281 12.164062 -0.722656 11.125 -0.265625 C 10.082031 0.191406 8.867188 0.421875 7.484375 0.421875 C 6.066406 0.421875 4.898438 0.273438 3.984375 -0.015625 C 3.078125 -0.316406 2.273438 -0.710938 1.578125 -1.203125 C 1.046875 -1.585938 0.78125 -1.972656 0.78125 -2.359375 C 0.78125 -2.816406 1.082031 -3.28125 1.6875 -3.75 C 2.28125 -3.15625 3.066406 -2.640625 4.046875 -2.203125 C 5.023438 -1.765625 6.179688 -1.546875 7.515625 -1.546875 Z M 7.515625 -1.546875 "/></g></g></g><g clip-path="url(#36cdecad88)"><g clip-path="url(#40f9e7b1ca)"><path fill="#00faa8" d="M 184.566406 33.574219 L 191.484375 33.574219 L 191.484375 40.492188 L 184.566406 40.492188 Z M 184.566406 33.574219 " fill-opacity="1" fill-rule="nonzero"/></g></g><g clip-path="url(#81fcd0e301)"><g clip-path="url(#04f9ac3fbb)"><path fill="url(#411628df47)" d="M 0.00390625 0.0117188 L 0.00390625 43.488281 L 41.226562 43.488281 L 41.226562 0.0117188 Z M 0.00390625 0.0117188 " fill-rule="nonzero"/></g></g></svg>